<svg width="139" height="143" viewBox="0 0 139 143" fill="none" xmlns="http://www.w3.org/2000/svg">
<path d="M119.6 85.4C115.1 111 92.9 129.6 66.8 129.6C39.5 129.6 16.8 109 13.6 82.5H27.4V91.8C27.4 100.9 34.7 108.2 43.8 108.2H84C93.7 108.2 102.5 103.2 107.3 94.7C112.1 86.2 112 76.1 107 67.8L62.5 0.400024H51.9V85.7H65V27.9L95.8 74.6C98.3 78.9 98.3 84 95.9 88.3C93.4 92.7 89 95.2 84 95.2H43.8C42 95.2 40.5 93.7 40.5 91.9V69.4H0.199951V75.9C0.199951 112.6 30.1 142.6 66.9 142.6C99.3 142.6 126.9 119.4 132.6 87.6C133.1 84.6 135.7 82.5 138.7 82.5V69.5C129.2 69.5 121.2 76.2 119.6 85.4Z" fill="#2CA5FF"/>
</svg>
