<svg width="400" height="400" viewBox="0 0 400 400" fill="none" xmlns="http://www.w3.org/2000/svg">
<path d="M308.628 230.116C298.881 285.567 250.794 325.855 194.26 325.855C135.126 325.855 85.9567 281.234 79.0253 223.834H108.917V243.978C108.917 263.689 124.729 279.502 144.44 279.502H231.516C252.527 279.502 271.588 268.672 281.986 250.26C292.383 231.848 292.166 209.971 281.336 191.993L184.946 46H161.986V230.765H190.361V105.567L257.076 206.722C262.491 216.036 262.491 227.083 257.292 236.397C251.877 245.928 242.347 251.343 231.516 251.343H144.44C140.542 251.343 137.292 248.094 137.292 244.195V195.458H50V209.538C50 289.032 114.765 354.014 194.477 354.014C264.657 354.014 324.44 303.762 336.787 234.881C337.87 228.383 343.502 223.834 350 223.834V195.675C329.422 195.675 312.094 210.188 308.628 230.116Z" fill="white"/>
</svg>
